<svg width="41px" height="50px" viewBox="-1 0 41 50" version="1.1" xmlns="http://www.w3.org/2000/svg" xmlns:xlink="http://www.w3.org/1999/xlink">
    <path d="M37.92,14.92 C36.755,14.29 29.72,10.32 29.72,10.32 L29.72,2.59348099e-13 L19.885,5.38 L10.027,2.59348099e-13 L10.05,10.3199726 C10.05,10.3199726 3.46638307,14.040395 1.03613286,15.4304199 C0.426167222,15.7793006 0.0234658989,16.4780425 -0.00999999804,17.2944336 C-0.137237214,20.3983495 -0.00999999893,30.6489258 -0.00999999893,30.6489258 C-0.00999999893,30.6489258 -0.179687574,32.4726563 0.428222641,32.9069824 C1.03613286,33.3413086 10.05,38.59 10.05,38.59 L10.05,49 L19.931,43.64 L29.721,49 L29.721,38.52 C29.721,38.52 34.1337087,36.2568359 36.0268552,35.4199219 C37.9200018,34.5830078 39.7589986,33.703125 39.759,30.92 C39.7590014,28.136875 39.759,17.72 39.759,17.72 C39.758,15.5 39.085,15.55 37.92,14.92 Z M29.706,13.52 L37.151,17.49 L37.151,26.98 L22.435,18.9 L29.706,14.92 L29.706,13.52 L29.706,13.52 Z M27.622,24.7 L20.154,28.63 L12.476,24.5 L19.869,20.38 L27.622,24.7 Z M12.327,3.99 L17.196,6.67 L12.327,9.35 L12.327,3.99 L12.327,3.99 Z M2.678,17.46 L27.413,4.14 L27.413,13.46 L2.678,26.84 L2.678,17.46 L2.678,17.46 Z M10.014,34.23 L10.014,35.51 L2.606,31.37 L2.606,29.88 L10.014,25.77 L17.631,30.03 L10.014,34.23 Z M27.414,44.98 L22.575,42.18 L27.414,39.74 L27.414,44.98 L27.414,44.98 Z M37.164,31.68 L12.312,44.97 L12.312,35.55 L30.337,26.13 L37.16,30.12 L37.16,31.68 L37.164,31.68 Z"></path>
</svg>
