<svg width="37px" height="37px" viewBox="0 0 37 37" version="1.1" xmlns="http://www.w3.org/2000/svg" xmlns:xlink="http://www.w3.org/1999/xlink">
    <path d="M18.2409994,1.88943743e-05 C8.14606383,0.0259636028 -0.0185417406,8.22665414 3.1626132e-05,18.3216059 C0.0186049929,28.4165577 8.21333154,36.5871493 18.3082942,36.5759472 C28.4032568,36.5647452 36.57983,28.375987 36.5759994,18.2810189 C36.5605468,8.17001469 28.3520052,-0.0143512302 18.2409994,1.88943743e-05 L18.2409994,1.88943743e-05 Z M29.6969994,29.3160189 C29.695898,29.5797819 29.4817647,29.7930212 29.2179994,29.7930189 L7.25999936,29.7930189 C6.99740536,29.7913765 6.78509067,29.5786158 6.78399936,29.3160189 L6.78399936,16.6620189 C6.80114946,16.3659889 6.93708952,16.0894212 7.16099936,15.8950189 L8.27899936,15.0370189 C8.31377951,15.0102628 8.35306469,14.9899429 8.39499936,14.9770189 L8.39499936,9.42001889 C8.39555032,9.25803784 8.52701736,9.12701796 8.68899936,9.12701889 L15.9889994,9.12701889 C16.0063224,9.10300648 16.0268456,9.08147395 16.0499994,9.06301889 L17.8579994,7.67301889 C18.0850031,7.51197015 18.3889956,7.51197015 18.6159994,7.67301889 L20.4249994,9.06301889 C20.4476971,9.08228633 20.468462,9.10372108 20.4869994,9.12701889 L27.8019994,9.12701889 C27.9649892,9.12697452 28.0981963,9.25707345 28.1019994,9.42001889 L28.1019994,14.9830189 C28.1380592,14.9954342 28.1718404,15.013676 28.2019994,15.0370189 L29.3189994,15.8950189 C29.5443009,16.0885687 29.6811299,16.3654759 29.6979994,16.6620189 L29.6979994,29.3110189 L29.6969994,29.3160189 Z M26.2289994,10.3950189 L10.2629994,10.3950189 C10.1011799,10.3950189 9.96999936,10.5261995 9.96999936,10.6880189 L9.96999936,18.5550189 C9.97991291,18.7328901 10.0762885,18.8946367 10.2279994,18.9880189 L17.9869994,23.1530189 C18.151092,23.2299719 18.3409067,23.2299719 18.5049994,23.1530189 L26.2649994,18.9880189 C26.4175994,18.8953713 26.514548,18.7332912 26.5239994,18.5550189 L26.5239994,10.6880189 C26.5229354,10.5250455 26.3919536,10.3927317 26.2289994,10.3900189 L26.2289994,10.3950189 Z M16.3099994,17.4840189 L11.7279994,17.4840189 L11.7279994,12.9120189 L16.3099994,12.9120189 L16.3099994,17.4840189 L16.3099994,17.4840189 Z M20.8099994,17.1840189 L17.6359994,17.1840189 L17.6359994,16.3400189 L20.8049994,16.3400189 L20.8049994,17.1840189 L20.8099994,17.1840189 Z M25.3999994,15.4700189 L17.6359994,15.4700189 L17.6359994,14.6270189 L25.3949994,14.6270189 L25.3949994,15.4700189 L25.3999994,15.4700189 Z M25.3999994,13.7550189 L17.6359994,13.7550189 L17.6359994,12.9130189 L25.3949994,12.9130189 L25.3949994,13.7550189 L25.3999994,13.7550189 Z"></path>
</svg>
