<svg width="200px" height="60px" viewBox="0 437 200 60" version="1.1" xmlns="http://www.w3.org/2000/svg" xmlns:xlink="http://www.w3.org/1999/xlink">
    <g stroke="none" stroke-width="1" fill-rule="evenodd" transform="translate(0.000000, 437.000000)">
        <path d="M169.944,0.273 L130.014,0.273 C127.113,0.273 124.284,1.237 121.989,2.997 C120.427,4.107 119.111,5.559 118.165,7.222 L118.114,7.311 L118.065,7.401 L112.543,17.647 C112.543,17.647 106.132,5.095 104.271,3.566 C101.875,1.498 98.83,0.363 95.658,0.363 C93.698,0.363 91.725,0.814 89.952,1.666 C86.517,3.318 84.617,6.345 82.997,9.91 L78.827,17.646 L73.767,7.714 C72.44,5.023 70.225,2.859 67.502,1.594 C65.716,0.729 63.735,0.273 61.758,0.273 L29.499,0.273 C27.307,0.273 25.133,0.824 23.211,1.868 C18.96,4.177 16.319,8.616 16.319,13.452 L16.319,16.894 L13.271,16.894 C6.003,16.894 0.091,22.806 0.091,30.073 C0.091,37.34 6.003,43.252 13.271,43.252 L16.319,43.252 L16.319,46.301 C16.319,53.568 22.231,59.48 29.499,59.48 C36.765,59.48 42.677,53.568 42.677,46.301 L42.677,43.252 L54.381,43.252 C56.914,43.252 59.283,42.534 61.293,41.291 L66.454,51.419 C66.712,51.998 67.014,52.56 67.354,53.098 C69.733,57.01 74.026,59.429 78.615,59.429 C80.577,59.429 82.549,58.979 84.321,58.127 C87.536,56.582 90.329,53.973 91.755,50.629 L95.503,42.257 L100.172,51.422 C100.429,51.998 100.729,52.557 101.067,53.093 C103.445,57.008 107.738,59.429 112.331,59.429 C114.292,59.429 116.265,58.979 118.037,58.128 C121.05,56.679 123.392,54.115 124.598,51.035 C126.566,55.839 131.295,59.233 136.8,59.233 L169.944,59.242 C177.211,59.242 183.123,53.568 183.123,46.301 L183.123,43.252 L186.172,43.252 C193.439,43.252 199.352,37.34 199.352,30.073 C199.352,22.806 193.439,16.894 186.172,16.894 L183.123,16.894 L183.123,13.452 C183.123,8.616 180.482,4.177 176.232,1.868 C174.31,0.824 172.136,0.273 169.944,0.273 L169.944,0.273 Z M140.931,41.726 L165.617,41.726 L165.617,34.401 L140.931,34.401 L140.931,41.726 Z M169.944,9.124 C170.691,9.124 171.394,9.314 172.007,9.647 C173.355,10.38 174.271,11.809 174.271,13.452 L174.271,25.746 L186.172,25.746 C188.563,25.746 190.5,27.683 190.5,30.073 C190.5,32.463 188.563,34.401 186.172,34.401 L174.271,34.401 L174.271,46.067 C174.271,48.457 172.334,50.394 169.944,50.394 C169.441,50.394 136.8,50.381 136.8,50.381 C134.409,50.381 132.472,48.444 132.472,46.053 L132.472,29.877 L132.481,29.877 C132.585,27.578 134.476,25.746 136.8,25.746 L165.617,25.746 L165.617,17.779 L132.355,17.779 L116.569,47.071 C116.317,48.368 115.482,49.534 114.2,50.15 C113.597,50.44 112.959,50.578 112.331,50.578 C110.83,50.578 109.386,49.792 108.593,48.431 C108.433,48.187 108.297,47.929 108.189,47.662 L95.724,23.191 L83.111,47.116 C82.565,48.397 81.767,49.533 80.484,50.15 C79.881,50.44 79.243,50.578 78.615,50.578 C77.114,50.578 75.67,49.793 74.876,48.431 C74.716,48.187 74.581,47.929 74.473,47.66 L59.25,17.779 L33.826,17.779 L33.826,25.746 L54.381,25.746 C56.771,25.746 58.709,27.683 58.709,30.073 C58.709,32.463 56.771,34.401 54.381,34.401 L33.826,34.401 L33.826,46.301 C33.826,48.691 31.888,50.629 29.499,50.629 C27.108,50.629 25.171,48.691 25.171,46.301 L25.171,34.401 L13.271,34.401 C10.88,34.401 8.943,32.463 8.943,30.073 C8.943,27.683 10.88,25.746 13.271,25.746 L25.171,25.746 L25.171,13.452 C25.171,11.809 26.086,10.38 27.436,9.647 C28.048,9.314 28.751,9.124 29.499,9.124 L61.758,9.124 C62.459,9.124 63.121,9.296 63.706,9.592 C64.612,9.994 65.385,10.705 65.848,11.669 L78.606,36.714 L91.406,12.794 C92.05,11.485 92.406,10.307 93.789,9.642 C94.393,9.352 95.03,9.214 95.658,9.214 C96.729,9.214 97.77,9.615 98.568,10.337 C99.356,10.954 99.722,11.371 100.263,12.419 L112.323,36.714 L125.857,11.6 C126.209,10.982 126.693,10.486 127.25,10.122 C128,9.499 128.963,9.124 130.014,9.124 L169.944,9.124 L169.944,9.124 Z"></path>
    </g>
</svg>
