<svg width="37px" height="37px" viewBox="0 -1 37 37" version="1.1" xmlns="http://www.w3.org/2000/svg" xmlns:xlink="http://www.w3.org/1999/xlink">
    <path d="M18.124,-0.007 C9.24559081,-0.0256005584 1.66806079,6.40640202 0.244122952,15.1699 C-1.17981489,23.933398 3.97144792,32.4336397 12.399,35.227 C12.6820272,35.3362127 13.0008826,35.2970346 13.2490519,35.1225531 C13.4972212,34.9480716 13.6419908,34.6612869 13.635,34.358 C13.635,33.928 13.618,32.502 13.609,30.992 C8.572,32.085 7.509,28.86 7.509,28.86 C7.17471856,27.7674094 6.46165481,26.8298955 5.498,26.216 C3.852,25.095 5.623,25.116 5.623,25.116 C6.78647793,25.2747317 7.81121642,25.9624435 8.399,26.979 C8.89613306,27.8799368 9.7324124,28.545088 10.7221117,28.8267326 C11.7118109,29.1083773 12.7729989,28.9831996 13.67,28.479 C13.7532499,27.5626662 14.1610869,26.7062084 14.82,26.064 C10.799,25.608 6.569,24.056 6.569,17.128 C6.54339187,15.3313496 7.21054285,13.5938206 8.432,12.276 C7.8800647,10.715734 7.94408308,9.00368956 8.611,7.489 C9.27791692,5.97431044 10.13,7.003 13.593,9.343 C16.5607968,8.53102087 19.6922032,8.53102087 22.66,9.343 C26.116,7.001 27.637,7.489 27.637,7.489 C28.3065788,9.00221416 28.3716988,10.7142959 27.819,12.274 C29.041067,13.5912983 29.7077018,15.329349 29.68,17.126 C29.68,24.071 25.444,25.601 21.409,26.049 C22.2834334,26.9340163 22.7316821,28.1543908 22.638,29.395 C22.638,31.811 22.614,33.76 22.614,34.356 C22.6056423,34.6619785 22.7520094,34.9515749 23.0033276,35.1263085 C23.2546458,35.3010422 23.5770865,35.3373932 23.861,35.223 C32.2788434,32.4198692 37.4183843,23.9223053 35.9923667,15.1653592 C34.5663491,6.40841314 26.9962869,-0.0194660646 18.124,-0.007 L18.124,-0.007 Z"></path>
</svg>
