<svg width="38px" height="39px" viewBox="0 -1 38 39" version="1.1" xmlns="http://www.w3.org/2000/svg" xmlns:xlink="http://www.w3.org/1999/xlink">
    <path d="M18.555,-3.55271876e-15 C8.33955611,0.0220818964 0.0743889554,8.31782035 0.0900223333,18.5332761 C0.105655711,28.7487319 8.39617511,37.0191341 18.6116387,37.0099493 C28.8271024,37.0007644 37.1027363,28.7154674 37.1,18.5 C37.0850983,8.27133474 28.7836713,-0.00994857659 18.555,-3.55271876e-15 L18.555,-3.55271876e-15 Z M27.775,13.787 C27.785,13.987 27.787,14.196 27.787,14.401 C27.7744535,19.3403271 25.0726532,23.8807408 20.7374604,26.2478514 C16.4022675,28.6149621 11.1219304,28.4329709 6.96,25.773 C7.33708808,25.816762 7.71638112,25.8387984 8.096,25.839 C10.2368394,25.8398608 12.3159597,25.1218178 14,23.8 C11.9660804,23.7621617 10.1809015,22.4362354 9.557,20.5 C9.85191267,20.5571114 10.1516083,20.5859089 10.452,20.586 C10.8755372,20.5859017 11.2971984,20.5297474 11.706,20.419 C9.48854759,19.9732039 7.8922097,18.0268176 7.889,15.765 L7.889,15.705 C8.5499399,16.0712636 9.28872451,16.2745579 10.044,16.298 C7.95353068,14.9090682 7.30810094,12.1313525 8.572,9.963 C10.9895237,12.9285813 14.5506835,14.7306009 18.372,14.922 C18.2911138,14.5673496 18.2501922,14.2047574 18.25,13.841 C18.255503,11.8914678 19.4492428,10.1423682 21.2626849,9.42673297 C23.0761271,8.71109774 25.1426322,9.17361309 26.478,10.594 C27.5436538,10.3840731 28.5656609,9.99380301 29.5,9.44 C29.1448131,10.5406542 28.4012055,11.4744292 27.408,12.067 C28.3508453,11.9557494 29.2717201,11.7039583 30.14,11.32 C29.5047359,12.2750884 28.703796,13.1088787 27.775,13.782 L27.775,13.787 Z"></path>
</svg>
