
<svg width="86px" height="49px" viewBox="57 75 86 49" version="1.1" xmlns="http://www.w3.org/2000/svg" xmlns:xlink="http://www.w3.org/1999/xlink">
    <g id="webby" stroke="none" stroke-width="1" fill-rule="evenodd" transform="translate(57.000000, 75.000000)">
        <g id="Group">
            <path d="M0.1,26.9 L0.1,30.7 C29.4,28.9 7.6,28 0.1,26.9" id="Shape"></path>
            <path d="M0.1,33.2 L0.1,36.9 L0.3,37 C22.6,34.9 16.2,34.1 0.1,33.2" id="Shape"></path>
            <path d="M0.1,0.2 L0.1,12.4 C18.5,11.8 18.6,10.7 9,9.5 L10.7,7.4 C22.5,9.2 21.7,12.2 13.3,13.6 C16.1,14.6 26.2,16.4 14,20.1 C16,20.6 27.1,23.4 13.3,25.9 C15.5,26.9 27.1,28.3 13.8,31.9 C17.3,32.5 26.1,34.4 14.4,38.1 C18.8,38.6 19.3,38.7 20.5,40.8 L20.5,48.8 L25.9,48.8 L25.9,0.2 L0.1,0.2 L0.1,0.2 Z" id="Shape"></path>
            <path d="M0.1,21.1 L0.1,24.9 C5.6,23.9 30.7,23.4 0.1,21.1" id="Shape"></path>
            <path d="M0.1,14.7 L0.1,18.7 C17.3,17.8 23.1,16.6 0.1,14.7" id="Shape"></path>
            <polygon id="Shape" points="32.2 13.2 29.3 13.2 29.3 12.6 35.8 12.6 35.8 13.2 32.8 13.2 32.8 21 32.2 21"></polygon>
            <polygon id="Shape" points="37.4 12.6 38 12.6 38 16.5 43.4 16.5 43.4 12.6 44 12.6 44 21 43.4 21 43.4 17.1 38 17.1 38 21 37.4 21"></polygon>
            <polygon id="Shape" points="46.2 12.6 52.2 12.6 52.2 13.2 46.8 13.2 46.8 16.5 51.7 16.5 51.7 17.1 46.8 17.1 46.8 20.4 52.3 20.4 52.3 21 46.2 21"></polygon>
            <polygon id="Shape" points="29.7 25.9 32.5 25.9 34.2 31.4 36 25.8 38.3 25.8 40.1 31.4 41.8 25.9 44.6 25.9 41.4 35.5 39.1 35.5 37.1 30 35.2 35.5 32.9 35.5"></polygon>
            <path d="M44.6,30.6 L44.6,30.6 C44.6,27.7 46.7,25.4 49.6,25.4 C53,25.4 54.5,27.9 54.5,30.8 L54.5,31.5 L47.9,31.5 C48.2,32.6 49,33.1 50,33.1 C50.8,33.1 51.5,32.8 52.2,32.1 L54.1,33.7 C53.2,34.9 51.8,35.7 49.8,35.7 C46.7,35.7 44.6,33.6 44.6,30.6 L44.6,30.6 Z M51.2,29.7 C51.1,28.6 50.4,27.9 49.5,27.9 C48.6,27.9 48,28.6 47.8,29.7 L51.2,29.7 L51.2,29.7 Z" id="Shape"></path>
            <path d="M56.3,25.9 L61.2,25.9 C62.4,25.9 63.2,26.2 63.8,26.7 C64.2,27.1 64.4,27.6 64.4,28.3 L64.4,28.3 C64.4,29.4 63.8,30.1 62.9,30.4 C64.1,30.8 64.8,31.4 64.8,32.7 L64.8,32.7 C64.8,34.3 63.5,35.3 61.2,35.3 L56.3,35.3 L56.3,25.9 L56.3,25.9 Z M61.8,28.8 C61.8,28.3 61.4,28 60.6,28 L58.9,28 L58.9,29.7 L60.6,29.7 C61.4,29.7 61.8,29.4 61.8,28.8 L61.8,28.8 L61.8,28.8 Z M60.9,31.5 L58.9,31.5 L58.9,33.3 L60.9,33.3 C61.7,33.3 62.2,33 62.2,32.4 L62.2,32.4 C62.2,31.9 61.8,31.5 60.9,31.5 L60.9,31.5 Z" id="Shape"></path>
            <path d="M66.9,25.9 L71.8,25.9 C73,25.9 73.8,26.2 74.4,26.7 C74.8,27.1 75,27.6 75,28.3 L75,28.3 C75,29.4 74.4,30.1 73.5,30.4 C74.7,30.8 75.4,31.4 75.4,32.7 L75.4,32.7 C75.4,34.3 74.1,35.3 71.8,35.3 L66.9,35.3 L66.9,25.9 L66.9,25.9 Z M72.4,28.8 C72.4,28.3 72,28 71.2,28 L69.5,28 L69.5,29.7 L71.2,29.7 C72,29.7 72.4,29.4 72.4,28.8 L72.4,28.8 L72.4,28.8 Z M71.5,31.5 L69.5,31.5 L69.5,33.3 L71.5,33.3 C72.3,33.3 72.8,33 72.8,32.4 L72.8,32.4 C72.8,31.9 72.4,31.5 71.5,31.5 L71.5,31.5 Z" id="Shape"></path>
            <polygon id="Shape" points="79.1 31.8 75.5 25.9 78.5 25.9 80.4 29.3 82.4 25.9 85.4 25.9 81.8 31.8 81.8 35.4 79.1 35.4"></polygon>
            <path d="M34,39.5 L34.6,39.5 L38.5,48 L37.8,48 L36.7,45.6 L31.7,45.6 L30.6,48 L29.9,48 L34,39.5 L34,39.5 Z M36.5,45.1 L34.3,40.2 L32.1,45.1 L36.5,45.1 L36.5,45.1 Z" id="Shape"></path>
            <polygon id="Shape" points="38.5 39.6 39.2 39.6 41.9 47.1 44.3 39.5 44.8 39.5 47.3 47.1 49.9 39.6 50.6 39.6 47.5 48.1 47 48.1 44.6 40.7 42.1 48.1 41.6 48.1"></polygon>
            <path d="M54.7,39.5 L55.3,39.5 L59.2,48 L58.5,48 L57.4,45.6 L52.4,45.6 L51.3,48 L50.6,48 L54.7,39.5 L54.7,39.5 Z M57.2,45.1 L55,40.2 L52.8,45.1 L57.2,45.1 L57.2,45.1 Z" id="Shape"></path>
            <path d="M60.6,39.6 L64.1,39.6 C65.1,39.6 66,39.9 66.5,40.4 C66.9,40.8 67.1,41.4 67.1,42 L67.1,42 C67.1,43.4 66.1,44.2 64.6,44.4 L67.4,48 L66.6,48 L63.9,44.5 L61.1,44.5 L61.1,48 L60.5,48 L60.5,39.6 L60.6,39.6 Z M64.1,43.9 C65.5,43.9 66.6,43.2 66.6,42 L66.6,42 C66.6,40.9 65.7,40.2 64.2,40.2 L61.3,40.2 L61.3,44 L64.1,44 L64.1,43.9 Z" id="Shape"></path>
            <path d="M69.1,39.6 L71.9,39.6 C74.5,39.6 76.4,41.4 76.4,43.8 L76.4,43.8 C76.4,46.2 74.6,48 71.9,48 L69.1,48 L69.1,39.6 L69.1,39.6 Z M69.7,40.1 L69.7,47.4 L71.9,47.4 C74.2,47.4 75.7,45.8 75.7,43.8 L75.7,43.8 C75.7,41.8 74.2,40.2 71.9,40.2 L69.7,40.2 L69.7,40.1 Z" id="Shape"></path>
            <path d="M77.5,46.8 L77.9,46.3 C78.8,47.2 79.7,47.6 80.9,47.6 C82.2,47.6 83,46.9 83,45.9 L83,45.9 C83,45 82.5,44.5 80.6,44.1 C78.6,43.7 77.8,43 77.8,41.7 L77.8,41.7 C77.8,40.4 78.9,39.5 80.5,39.5 C81.7,39.5 82.5,39.8 83.4,40.5 L83,41 C82.2,40.3 81.4,40 80.5,40 C79.3,40 78.4,40.7 78.4,41.6 L78.4,41.6 C78.4,42.5 78.9,43 80.9,43.4 C82.9,43.8 83.7,44.5 83.7,45.7 L83.7,45.7 C83.7,47.1 82.5,48 80.9,48 C79.5,48.1 78.5,47.7 77.5,46.8" id="Shape"></path>
        </g>
    </g>
</svg>
